# xmcd
# 
# Track frame offsets:
#     150
#     12110
#     33288
#     46431
#     64716
#     77999
#     90578
#     102181
# 
# Disc length: 1535
# 
# Revision: 0
# Processed by: cddbd v1.5.2PL0 Copyright (c) Steve Scherf et al.
# Submitted via: fre:ac v1.0.17
# 
DISCID=5805fd08
DTITLE=The Mighty Resonators - I Broke Your Spell
DYEAR=0
DGENRE=Blues
TTITLE0=I Broke Your Spell
TTITLE1=Lucky Man
TTITLE2=The Mighty Resonator Boogie
TTITLE3=Checkin' on, Checkin' in, Checkin' Out
TTITLE4=Baby Don't
TTITLE5=Caledonia
TTITLE6=Route 66
TTITLE7=Sugar Coated Love
EXTD=
EXTT0=
EXTT1=
EXTT2=
EXTT3=
EXTT4=
EXTT5=
EXTT6=
EXTT7=
PLAYORDER=
